<?xml version="1.0"?>
<svg xmlns="http://www.w3.org/2000/svg" xmlns:xlink="http://www.w3.org/1999/xlink" id="Gradient" viewBox="0 0 512 512" width="512" height="512"><defs><linearGradient id="linear-gradient" x1="256" y1="496" x2="256" y2="16" gradientUnits="userSpaceOnUse"><stop offset="0" stop-color="#12c2e9"/><stop offset="0.5" stop-color="#c471ed"/><stop offset="1" stop-color="#f64f59"/></linearGradient></defs><path d="M256,16A240,240,0,0,0,86.3,425.705,240,240,0,1,0,425.705,86.3,238.427,238.427,0,0,0,256,16ZM414.392,414.392A224,224,0,0,1,97.608,97.608,224,224,0,0,1,414.392,414.392ZM256,64C150.131,64,64,150.131,64,256A192.07,192.07,0,0,0,192.591,437.273a23.98,23.98,0,0,0,42.263,9.551,192.293,192.293,0,0,0,56.786-2.139A23.991,23.991,0,0,0,336,432v-1.419A191.78,191.78,0,0,0,448,256C448,150.131,361.869,64,256,64ZM227.993,236.783A8,8,0,0,0,224,243.708V432a8,8,0,0,1-16,0V243.708a8,8,0,0,0-3.993-6.925A24.092,24.092,0,0,1,192,216h48A24.092,24.092,0,0,1,227.993,236.783ZM320,432a8,8,0,0,1-16,0V288a8,8,0,0,0-8-8h-8V176a24.028,24.028,0,0,1,24-24h8Zm16-19.187V144a8,8,0,0,0-8-8H312a40.045,40.045,0,0,0-40,40V288a8,8,0,0,0,8,8h8V429.083A177.455,177.455,0,0,1,256,432c-5.337,0-10.692-.257-16-.734V247.989A40.145,40.145,0,0,0,256,216V144a8,8,0,0,0-16,0v56H224V144a8,8,0,0,0-16,0v56H192V144a8,8,0,0,0-16,0v72a40.145,40.145,0,0,0,16,31.989V420.006A176.1,176.1,0,0,1,80,256c0-97.047,78.953-176,176-176s176,78.953,176,176A175.793,175.793,0,0,1,336,412.813Z" style="fill:url(#linear-gradient)"/></svg>
